<svg version="1" xmlns="http://www.w3.org/2000/svg" width="346.667" height="346.667" viewBox="0 0 260.000000 260.000000"><path d="M149.2 40.3c-.7.8-7.7 23.9-15.6 51.3-7.9 27.5-18 62-22.4 76.9-4.4 14.8-10.4 35.4-13.3 45.8-6 21.2-6 20.9 2.3 23.4 6.4 1.9 9.5 1.6 11.2-1 .7-1.2 6.7-20.6 13.1-43.2 6.4-22.6 14.3-49.8 17.5-60.5 14.7-49.2 25-86.3 24.5-88-1.1-3.6-15.1-7.4-17.3-4.7zM56.9 77.2c-6.7 6.2-22.2 21.6-34.5 34.2L0 134.4v10.1l33.8 33.8C55.9 200.4 68.2 212 69.5 212c2.6 0 12.5-9.9 12.5-12.5 0-1.3-10.6-12.6-29-31l-29-29 29-29C75.7 87.8 82 80.9 82 79c0-2.7-7.7-11.1-11.3-12.3-1.3-.5-4.9 2.2-13.8 10.5zM189 66.8c-3.2 1-11 9.6-11 12.2 0 1.9 6.3 8.8 29 31.5l29 29-29 29c-19.1 19-29 29.7-29 31 0 2.6 9.9 12.5 12.5 12.5 1.3 0 14.2-12.2 35.8-33.8l33.7-33.7v-10.6l-32.7-32.8c-18.1-18-33.7-33.2-34.8-33.8-1.1-.6-2.7-.8-3.5-.5z"/></svg>